<?xml version="1.0" standalone="no"?>
<!DOCTYPE svg PUBLIC "-//W3C//DTD SVG 20010904//EN"
 "http://www.w3.org/TR/2001/REC-SVG-20010904/DTD/svg10.dtd">
<svg version="1.0" xmlns="http://www.w3.org/2000/svg"
 width="5000.000000pt" height="5000.000000pt" viewBox="0 0 5000.000000 5000.000000"
 preserveAspectRatio="xMidYMid meet">
<metadata>
Created by potrace 1.11, written by Peter Selinger 2001-2013
</metadata>
<g transform="translate(0.000000,5000.000000) scale(0.100000,-0.100000)"
fill="#000000" stroke="none">
<path d="M20200 42199 c-60 -24 -88 -73 -160 -286 -45 -131 -111 -360 -124
-424 -44 -235 -57 -304 -65 -359 -9 -59 -7 -531 3 -621 2 -20 7 -65 11 -100 3
-35 8 -71 10 -79 2 -8 7 -35 10 -60 4 -24 18 -94 31 -155 14 -60 27 -119 29
-129 9 -41 66 -222 75 -238 6 -10 10 -23 10 -30 0 -38 134 -335 222 -493 95
-170 90 -150 68 -230 -107 -394 -281 -701 -556 -980 -144 -146 -264 -242 -420
-337 -83 -51 -258 -138 -277 -138 -20 0 -25 7 -97 145 -35 66 -83 153 -107
193 -24 41 -43 76 -43 78 0 9 -177 273 -244 364 -60 81 -184 235 -291 360 -32
38 -196 201 -291 290 -60 56 -165 146 -244 210 -24 19 -48 40 -54 45 -53 50
-374 269 -501 342 -123 71 -148 85 -265 144 -227 113 -448 204 -675 276 -77
25 -147 47 -155 51 -8 3 -18 4 -22 4 -5 -1 -8 2 -8 6 0 4 -11 9 -24 10 -13 1
-93 17 -177 36 -85 19 -167 36 -184 39 -16 3 -61 11 -100 17 -86 15 -89 16
-200 30 -49 6 -103 14 -120 17 -52 9 -724 13 -729 4 -3 -5 -21 -5 -40 -1 -19
4 -37 6 -39 3 -5 -4 -47 -8 -217 -18 -58 -3 -121 -9 -140 -12 -19 -3 -48 -7
-65 -8 -16 -1 -37 -5 -45 -8 -8 -3 -33 -8 -55 -11 -22 -2 -49 -7 -60 -10 -95
-23 -167 -43 -270 -76 -66 -22 -145 -46 -175 -55 -30 -9 -63 -21 -72 -26 -10
-5 -22 -9 -28 -9 -17 0 -193 -67 -335 -128 -258 -110 -528 -254 -750 -399
-100 -66 -321 -226 -340 -247 -5 -6 -30 -27 -55 -46 -24 -19 -52 -42 -61 -50
-9 -8 -47 -42 -85 -75 -226 -195 -528 -535 -707 -795 -213 -309 -385 -628
-516 -957 -99 -250 -208 -623 -247 -848 -4 -22 -9 -49 -11 -60 -2 -11 -16 -92
-30 -180 -25 -154 -26 -177 -27 -600 -1 -484 4 -570 49 -815 3 -14 7 -38 10
-55 5 -27 23 -111 46 -220 39 -184 152 -544 210 -672 10 -23 19 -45 19 -49 0
-24 175 -386 255 -529 71 -125 239 -389 265 -415 3 -3 44 -57 92 -121 244
-325 562 -641 893 -888 101 -75 282 -201 290 -201 3 0 27 -15 53 -33 26 -18
72 -48 102 -66 30 -17 80 -48 110 -67 73 -46 272 -142 390 -189 52 -21 109
-43 125 -50 116 -48 430 -149 620 -200 151 -39 182 -53 285 -131 401 -302 708
-842 757 -1334 4 -41 7 -167 7 -280 0 -252 -13 -328 -98 -555 -29 -78 -27 -72
-91 -210 -26 -55 -55 -121 -66 -147 -10 -26 -40 -91 -67 -145 -72 -143 -195
-456 -217 -552 -2 -9 -18 -61 -35 -116 -17 -55 -33 -109 -35 -119 -3 -10 -9
-33 -14 -50 -15 -44 -69 -265 -76 -306 -3 -19 -11 -55 -16 -80 -15 -66 -19
-82 -24 -115 -2 -16 -6 -41 -9 -55 -11 -53 -31 -189 -46 -310 -20 -157 -24
-263 -24 -600 0 -305 7 -525 18 -590 2 -14 7 -47 10 -75 4 -27 9 -66 12 -85
14 -90 34 -207 39 -230 3 -14 8 -41 11 -60 14 -96 119 -518 141 -570 3 -8 8
-23 9 -32 5 -23 112 -325 129 -363 8 -16 26 -59 40 -95 49 -120 211 -458 224
-470 3 -3 19 -30 35 -60 48 -91 151 -261 232 -381 71 -106 228 -321 257 -351
6 -7 30 -36 52 -63 21 -28 42 -52 45 -55 3 -3 20 -23 39 -45 150 -177 380
-409 563 -567 181 -157 226 -188 278 -192 21 -1 44 -15 68 -38 73 -72 112
-107 112 -102 0 4 14 -8 30 -26 17 -18 30 -29 30 -25 0 5 11 -4 25 -19 13 -14
27 -26 30 -26 5 0 53 -34 120 -85 10 -8 25 -15 32 -15 7 0 13 -4 13 -10 0 -5
5 -10 11 -10 6 0 30 -13 54 -30 24 -16 48 -30 53 -30 5 0 15 -7 22 -15 7 -8
16 -12 21 -9 5 3 9 0 9 -6 0 -6 4 -9 9 -6 5 3 14 -1 21 -9 7 -8 18 -15 24 -15
7 0 31 -9 54 -20 22 -11 46 -20 52 -20 5 0 10 -5 10 -12 0 -6 3 -9 6 -5 3 3
34 -6 67 -20 99 -40 101 -41 125 -46 18 -4 22 -2 18 11 -17 58 -68 290 -67
307 0 11 -15 99 -34 195 -77 387 -136 799 -175 1225 -56 601 -54 1569 5 2170
91 938 261 1758 542 2610 295 895 633 1628 1153 2495 88 146 189 306 224 355
98 135 178 274 312 540 177 352 239 522 285 781 31 173 34 578 6 746 -42 247
-104 440 -217 673 -114 236 -193 343 -457 625 -223 238 -279 320 -413 608
-114 244 -175 440 -220 705 -26 156 -29 559 -4 730 52 360 190 718 396 1022
206 306 386 484 620 614 l58 31 28 -57 c33 -66 68 -169 77 -229 l6 -42 -83
-71 c-46 -40 -110 -95 -142 -124 -172 -149 -368 -445 -479 -722 -88 -220 -124
-380 -138 -620 -25 -423 43 -771 219 -1117 105 -204 176 -299 434 -575 156
-166 177 -194 260 -335 118 -199 167 -292 218 -407 88 -202 162 -474 196 -721
21 -152 24 -507 5 -655 -27 -211 -95 -483 -170 -678 -125 -323 -193 -475 -252
-562 -454 -665 -654 -999 -933 -1555 -379 -758 -644 -1456 -851 -2240 -371
-1403 -468 -2952 -280 -4425 44 -341 94 -627 182 -1035 47 -221 54 -264 48
-325 l-5 -71 44 -51 c24 -29 46 -49 50 -46 3 4 6 1 6 -6 0 -6 18 -31 41 -54
23 -23 48 -52 56 -64 8 -13 22 -23 29 -23 8 0 14 -4 14 -9 0 -4 25 -34 55 -65
30 -31 55 -53 55 -49 0 4 11 -9 25 -30 14 -20 29 -37 33 -37 5 0 37 -28 73
-62 36 -35 90 -83 119 -108 29 -25 59 -51 66 -57 7 -7 17 -13 22 -13 6 0 12
-3 14 -8 6 -14 150 -133 174 -144 13 -6 21 -15 17 -21 -3 -6 -2 -7 4 -4 5 3
26 -9 46 -28 21 -19 41 -35 46 -35 4 0 19 -10 33 -22 38 -35 92 -72 83 -58 -5
9 -4 11 3 6 7 -4 12 -14 12 -23 0 -9 3 -14 6 -10 4 3 21 -5 39 -18 17 -14 37
-25 43 -25 7 0 12 -4 12 -10 0 -5 7 -10 16 -10 9 0 12 -5 8 -12 -4 -7 -4 -10
1 -6 11 11 47 -11 39 -24 -4 -6 -3 -8 3 -5 5 3 21 -1 34 -11 13 -9 30 -17 38
-19 7 -1 19 -7 25 -14 8 -9 8 -10 -3 -4 -10 6 -12 4 -7 -4 5 -7 10 -10 13 -7
5 5 62 -22 73 -35 15 -16 118 -68 124 -61 4 4 6 1 4 -7 -2 -8 7 -17 19 -20 13
-3 32 -14 43 -23 11 -10 27 -18 35 -18 8 0 15 -4 15 -9 0 -5 7 -12 16 -15 10
-4 13 -2 8 6 -4 7 6 2 23 -10 17 -12 36 -22 41 -22 6 0 12 -4 14 -9 2 -5 10
-11 18 -13 8 -2 17 -5 20 -8 11 -11 73 -40 86 -40 8 0 14 -4 14 -10 0 -5 3 -9
8 -8 7 2 63 -23 72 -32 3 -3 10 -6 16 -7 7 -1 37 -14 67 -28 31 -14 61 -25 66
-25 6 0 11 -5 11 -12 0 -6 3 -9 6 -5 4 3 24 -3 45 -14 22 -11 39 -17 39 -14 0
4 12 0 28 -9 38 -20 142 -59 158 -59 8 0 14 -4 14 -9 0 -4 9 -8 19 -8 11 0 23
-5 26 -10 4 -6 12 -10 18 -9 7 1 26 -4 42 -11 32 -14 38 -16 70 -24 11 -2 47
-14 80 -26 33 -11 61 -20 63 -20 3 0 13 -2 72 -19 25 -7 53 -15 62 -16 10 -2
23 -7 28 -10 5 -3 18 -8 27 -10 10 -2 59 -13 108 -26 50 -12 99 -23 110 -25
11 -1 20 -3 20 -4 0 -1 11 -3 25 -6 14 -2 36 -7 50 -10 14 -4 32 -8 40 -9 8
-1 54 -10 102 -19 47 -9 102 -18 121 -20 19 -2 40 -7 46 -10 6 -4 39 -9 73
-12 61 -4 96 -8 148 -18 14 -2 61 -7 105 -11 44 -4 98 -8 120 -10 150 -15 685
-26 685 -15 0 3 37 5 83 6 111 1 254 11 266 18 5 4 13 1 17 -5 4 -7 9 -8 13
-1 3 6 42 12 86 15 44 3 91 8 105 12 14 3 45 7 70 10 25 3 56 7 70 10 14 3 45
8 70 11 25 3 52 7 60 9 8 3 31 7 50 10 95 15 90 11 157 145 34 69 74 157 89
195 15 39 33 75 39 80 6 6 214 474 462 1040 248 567 726 1658 1063 2425 655
1492 745 1700 780 1801 13 35 74 172 135 304 225 480 550 1225 640 1468 27 71
70 167 97 214 27 47 47 87 45 89 -5 5 -249 -33 -1732 -267 -1533 -242 -1928
-306 -2070 -335 -66 -14 -172 -36 -235 -50 -217 -46 -569 -54 -816 -18 -412
59 -836 243 -1164 504 -118 94 -343 326 -428 441 -280 379 -455 851 -479 1294
-9 180 23 221 166 213 151 -9 164 -26 196 -265 38 -289 84 -448 195 -678 175
-365 470 -686 827 -899 300 -179 718 -291 1018 -272 105 6 441 56 680 101 244
46 290 54 457 75 444 57 3320 509 3618 570 189 38 437 76 630 95 193 19 287
43 415 105 284 136 498 389 585 690 28 95 39 351 20 468 -13 83 -58 218 -98
297 -92 184 -270 369 -415 434 -37 17 -98 48 -135 71 -95 56 -197 80 -367 87
-189 7 -247 -3 -526 -97 -130 -44 -279 -87 -330 -96 -229 -39 -1296 -292
-1983 -471 l-330 -85 -260 5 c-281 5 -333 13 -556 82 -112 35 -345 150 -444
219 -193 134 -371 316 -501 511 -129 193 -155 286 -97 345 42 41 91 48 171 21
114 -37 138 -56 249 -201 119 -157 186 -228 297 -315 194 -152 422 -256 650
-297 109 -19 359 -17 420 4 28 10 95 24 150 33 107 17 170 32 361 88 67 20
224 56 348 82 408 82 1502 348 1826 445 215 64 300 80 445 87 139 6 264 -7
419 -44 103 -24 110 -25 122 -8 7 9 101 216 209 460 114 257 215 470 241 508
27 42 44 78 44 96 0 17 13 49 28 73 16 24 58 102 94 173 l65 130 -13 60 c-7
33 -16 80 -19 105 -6 46 -16 107 -21 125 -2 6 -7 35 -13 65 -5 30 -14 73 -19
95 -11 49 -13 368 -2 427 4 24 10 61 13 83 19 138 87 361 154 505 19 41 42 93
49 115 8 22 33 70 54 107 22 36 40 71 40 76 0 6 3 12 8 14 4 2 15 19 26 38 61
115 88 158 181 299 57 86 129 192 160 236 93 132 192 304 240 418 77 185 172
509 204 697 19 111 21 123 27 185 3 33 8 71 11 85 9 50 12 577 2 650 -16 131
-80 448 -109 548 -51 174 -67 226 -89 287 -12 33 -23 65 -24 70 -2 6 -31 82
-66 170 -106 265 -186 411 -288 525 -13 14 -23 29 -23 35 0 5 -9 -9 -19 -32
-43 -94 -140 -157 -275 -178 -21 -4 -48 -9 -60 -11 -108 -23 -318 -22 -451 2
-51 9 -60 11 -75 17 -8 3 -44 13 -80 22 -77 21 -218 85 -315 145 -38 23 -72
45 -75 49 -3 3 -21 18 -40 32 -89 66 -251 248 -292 329 -7 14 -16 27 -19 30
-13 10 -80 153 -104 218 -24 68 -44 138 -51 180 -2 12 -6 34 -9 50 -26 133
-23 343 7 487 14 68 75 252 98 295 10 19 27 53 38 75 69 139 244 338 375 425
20 14 37 29 37 33 0 5 5 5 10 2 6 -3 13 1 16 9 3 9 10 13 15 10 5 -3 9 -2 9 3
0 4 24 19 53 33 28 14 54 27 57 30 8 9 101 45 123 49 4 0 20 7 35 15 15 7 62
22 105 32 42 10 76 21 75 24 -2 4 -41 73 -87 154 -315 547 -934 1149 -1551
1508 -116 68 -350 188 -444 230 -105 46 -435 156 -578 193 -10 3 -26 7 -35 10
-10 2 -88 20 -173 39 -157 35 -171 38 -295 56 -38 6 -81 12 -95 15 -104 16
-201 20 -530 20 -332 -1 -502 -7 -550 -20 -8 -2 -36 -6 -61 -9 -330 -42 -819
-180 -1154 -327 -11 -5 -43 -17 -71 -28 -66 -25 -239 -117 -304 -161 -14 -9
-32 -20 -40 -23 -8 -4 -44 -25 -79 -47 -34 -22 -65 -40 -68 -40 -2 0 -20 -11
-40 -24 l-35 -24 -81 101 c-141 175 -379 406 -559 541 -263 198 -474 315 -798
443 -251 99 -320 116 -380 92z m2855 -2724 c782 -176 1262 -924 1083 -1690
-125 -539 -539 -942 -1089 -1061 -132 -29 -429 -27 -568 4 -267 60 -500 185
-690 371 -161 157 -278 343 -349 558 -53 157 -67 248 -67 443 0 128 5 199 18
263 98 486 431 880 892 1052 105 39 195 63 280 75 92 13 408 4 490 -15z m3320
-2230 c222 -58 414 -251 472 -475 20 -80 23 -254 4 -330 -47 -192 -181 -359
-356 -445 -99 -49 -172 -65 -295 -65 -205 0 -332 52 -475 195 -151 150 -200
280 -193 505 4 105 9 136 31 194 67 171 178 297 328 370 52 25 112 50 134 55
68 15 284 13 350 -4z"/>
<path d="M28508 42145 c-2 -3 -22 -7 -44 -10 -64 -10 -352 -82 -454 -113 -122
-38 -273 -95 -363 -137 -40 -18 -74 -32 -77 -32 -3 0 -24 -12 -47 -26 -24 -15
-46 -27 -50 -27 -30 0 -447 -268 -483 -310 -3 -3 -24 -21 -48 -39 l-43 -33
128 -87 c452 -305 860 -690 1186 -1119 l86 -113 40 69 c184 315 324 701 390
1077 18 98 24 146 37 275 8 83 18 303 18 401 0 99 -1 109 -27 147 -42 64 -69
77 -163 79 -45 1 -84 0 -86 -2z"/>
<path d="M30177 32863 c-137 -199 -1102 -1662 -1334 -2023 -64 -100 -89 -146
-80 -151 6 -4 117 -43 245 -88 504 -174 866 -321 1332 -539 370 -173 780 -375
841 -414 31 -20 155 -94 275 -164 1680 -978 3132 -2289 4275 -3859 490 -673
976 -1494 1319 -2225 50 -107 98 -201 105 -209 12 -12 79 20 447 212 678 354
1753 920 1777 937 l23 15 -186 370 c-908 1812 -2128 3442 -3646 4870 -730 687
-1437 1247 -2290 1814 -470 313 -809 519 -1270 771 -275 150 -755 394 -1025
520 -255 119 -675 300 -696 300 -10 0 -55 -56 -112 -137z"/>
<path d="M28551 30338 c-5 -13 -82 -189 -171 -393 -89 -203 -171 -389 -181
-412 l-18 -42 103 -90 c256 -224 393 -436 481 -740 l35 -123 0 -251 c0 -238
-1 -257 -25 -347 -111 -412 -361 -736 -716 -924 -112 -60 -197 -92 -354 -131
-71 -19 -123 -35 -115 -38 8 -2 69 -14 135 -26 162 -30 303 -79 470 -162 357
-177 631 -457 806 -824 195 -409 226 -894 83 -1334 -44 -138 -157 -362 -241
-480 -261 -363 -647 -612 -1108 -714 -88 -19 -129 -22 -350 -21 -222 0 -262 2
-355 22 -448 97 -819 335 -1096 703 -30 41 -62 87 -71 103 -8 15 -18 24 -23
20 -25 -26 -2170 -4915 -2170 -4946 0 -5 8 -7 18 -4 428 124 3996 1177 8262
2437 4415 1305 4834 1430 4844 1439 12 12 1 39 -190 425 -491 996 -1106 1923
-1849 2791 -414 484 -965 1034 -1474 1471 -744 639 -1711 1297 -2433 1653 -97
48 -190 97 -207 109 -73 52 -555 281 -881 418 -444 188 -996 388 -1173 427
-22 5 -29 2 -36 -16z m4002 -3522 c278 -83 517 -298 616 -555 57 -149 63 -188
59 -391 -5 -176 -6 -189 -36 -274 -60 -169 -160 -323 -272 -417 -27 -23 -50
-45 -50 -48 0 -3 28 -22 62 -41 209 -119 411 -306 540 -500 105 -159 195 -386
234 -595 22 -111 24 -386 5 -495 -69 -400 -262 -732 -566 -977 -150 -120 -288
-194 -482 -257 -193 -62 -255 -71 -483 -71 -230 0 -320 14 -513 81 -452 158
-804 515 -952 967 -62 190 -70 249 -70 492 0 243 9 303 70 491 103 316 323
604 608 798 40 26 124 74 188 105 l115 56 -72 90 c-84 103 -150 224 -190 345
-26 81 -28 95 -28 275 l-1 190 38 110 c46 133 88 210 170 312 109 136 264 242
432 297 132 43 153 45 325 42 143 -3 177 -7 253 -30z m-5789 -4177 c280 -77
499 -302 577 -594 29 -108 31 -289 5 -395 -60 -246 -212 -437 -436 -550 -147
-74 -174 -80 -358 -80 -188 0 -243 10 -359 65 -225 106 -387 295 -455 532 -33
113 -33 333 0 446 87 301 324 523 632 592 87 19 295 11 394 -16z"/>
<path d="M32132 26474 c-125 -33 -243 -115 -327 -226 -83 -110 -115 -206 -115
-348 0 -174 50 -291 180 -420 97 -97 174 -141 292 -166 83 -18 198 -13 288 12
178 50 345 215 405 401 13 42 16 82 13 191 l-3 139 -44 89 c-77 156 -233 289
-386 329 -74 19 -232 19 -303 -1z"/>
<path d="M32040 24908 c-160 -13 -392 -101 -539 -205 -90 -64 -247 -224 -303
-309 -136 -205 -198 -414 -198 -664 0 -370 156 -688 457 -931 181 -145 414
-233 653 -246 157 -8 299 9 426 52 192 64 316 138 457 274 159 154 247 293
325 518 l37 108 0 225 0 225 -32 100 c-84 262 -233 475 -444 634 -131 99 -339
189 -485 210 -93 13 -250 18 -354 9z"/>
<path d="M26452 22300 c-203 -30 -382 -243 -382 -455 0 -178 102 -342 266
-425 65 -34 73 -35 192 -38 l125 -4 76 38 c99 49 185 134 232 229 33 68 34 72
34 195 0 121 -1 128 -32 190 -58 117 -166 217 -273 253 -58 19 -171 27 -238
17z"/>
<path d="M27130 26473 c-86 -15 -313 -87 -318 -101 -1 -4 -177 -405 -391 -892
l-388 -884 29 -70 c68 -165 169 -317 301 -453 214 -220 490 -367 786 -417 119
-20 334 -21 464 -1 114 17 270 67 390 124 385 184 689 566 777 977 31 145 38
397 15 535 -50 302 -183 558 -404 780 -217 216 -477 353 -767 404 -112 19
-379 18 -494 -2z"/>
<path d="M36487 14763 c-2 -5 -3 -259 -3 -566 1 -337 -3 -561 -8 -565 -5 -3
-126 -5 -268 -5 l-258 0 0 -542 0 -542 261 1 c143 0 264 -1 268 -4 4 -3 7
-502 7 -1110 0 -996 4 -1239 19 -1335 6 -36 15 -91 22 -125 38 -213 160 -453
295 -581 150 -141 382 -248 598 -276 19 -2 41 -6 48 -8 21 -7 218 -19 312 -19
152 1 315 14 410 34 25 5 56 12 70 14 62 11 140 35 284 88 46 17 188 88 216
108 l25 18 0 503 c0 277 -3 503 -7 501 -12 -4 -99 -42 -133 -57 -41 -18 -157
-55 -191 -61 -16 -2 -54 -10 -84 -16 -89 -19 -315 -15 -376 5 -120 41 -190
118 -223 247 -19 72 -20 118 -20 1071 -1 944 0 997 16 1000 10 2 246 4 526 3
455 -1 507 1 508 15 0 9 1 251 2 539 2 516 2 523 -18 527 -11 2 -238 4 -505 4
-267 0 -495 0 -507 0 l-23 1 0 570 0 570 -629 0 c-347 0 -632 -3 -634 -7z"/>
<path d="M17119 13706 c-2 -2 -31 -7 -64 -10 -254 -27 -516 -113 -745 -244
-373 -214 -669 -551 -844 -962 -15 -36 -31 -74 -36 -85 -40 -88 -118 -381
-135 -508 -31 -222 -37 -294 -37 -502 0 -157 5 -259 18 -360 3 -22 7 -57 9
-77 14 -133 90 -439 134 -543 70 -165 97 -225 113 -254 11 -20 30 -54 41 -76
19 -35 131 -205 157 -238 80 -104 232 -258 335 -342 241 -195 624 -367 897
-401 24 -3 49 -7 56 -9 20 -7 181 -18 267 -18 72 -1 207 8 275 18 72 10 230
44 245 53 6 4 15 7 20 8 34 6 125 43 220 90 195 96 387 252 550 447 44 52 81
94 83 92 2 -2 3 -443 3 -982 l0 -978 635 0 634 0 0 2901 0 2901 -634 0 -635 0
0 -271 c0 -149 0 -279 -1 -289 0 -13 -13 -4 -47 34 -310 343 -658 535 -1078
595 -44 6 -431 15 -436 10z m621 -1081 c93 -12 117 -17 201 -45 260 -86 467
-267 606 -530 37 -69 80 -174 88 -210 2 -8 10 -42 18 -75 8 -33 18 -76 21 -95
3 -19 8 -46 11 -60 3 -14 7 -92 9 -175 7 -320 -59 -575 -209 -805 -23 -36 -52
-75 -64 -87 -11 -12 -21 -24 -21 -26 0 -8 -76 -82 -130 -127 -183 -152 -396
-231 -630 -233 -175 -2 -267 13 -406 68 -127 51 -296 164 -374 252 -76 85
-190 246 -190 268 0 3 -13 31 -28 63 -16 33 -32 68 -35 78 -37 122 -49 172
-63 253 -17 102 -23 313 -11 426 7 73 9 85 29 175 6 30 12 57 13 60 7 36 56
162 86 222 86 174 224 337 367 432 71 47 211 116 267 131 17 5 32 9 35 10 129
36 279 47 410 30z"/>
<path d="M28100 13707 c-3 -3 -36 -7 -75 -11 -304 -26 -633 -137 -905 -304
-172 -106 -399 -302 -505 -437 -22 -27 -48 -59 -58 -70 -40 -43 -168 -245
-223 -350 -139 -268 -226 -563 -262 -885 -9 -86 -9 -467 1 -553 16 -149 31
-229 67 -372 31 -123 39 -146 87 -270 212 -546 638 -979 1188 -1208 207 -86
482 -154 709 -175 158 -14 591 -6 648 12 7 3 33 7 58 10 87 9 246 48 379 92
359 120 675 328 928 613 76 85 83 96 68 107 -10 7 -38 32 -64 56 -25 24 -80
72 -121 108 -41 36 -80 70 -86 75 -6 6 -39 35 -74 65 -34 30 -72 64 -84 75
-76 69 -187 167 -221 196 -22 19 -41 37 -43 42 -7 15 -29 5 -73 -36 -25 -23
-59 -52 -75 -64 -43 -33 -73 -56 -102 -79 -40 -31 -169 -107 -234 -137 -250
-117 -522 -153 -847 -112 -154 20 -390 121 -491 210 -123 110 -221 239 -279
369 -29 64 -74 194 -85 249 l-6 27 1555 0 1555 0 1 43 c1 23 3 56 5 72 11 98
5 479 -10 575 -3 14 -7 52 -11 85 -11 97 -53 302 -85 416 -74 261 -171 477
-309 684 -88 133 -144 200 -265 320 -177 177 -367 302 -611 404 -97 41 -293
100 -385 115 -19 3 -46 8 -60 11 -14 3 -45 8 -70 11 -25 3 -56 8 -70 10 -36 6
-455 16 -460 11z m271 -1021 c290 -21 550 -200 696 -477 52 -97 111 -270 127
-369 2 -14 7 -41 11 -60 l6 -35 -954 -1 -955 0 4 21 c2 11 7 31 10 45 2 14 7
36 10 50 13 67 72 225 115 310 97 191 235 336 394 418 133 67 207 88 350 98
50 4 92 8 93 10 2 1 9 1 15 -1 7 -2 42 -6 78 -9z"/>
<path d="M12697 13694 c-1 -1 -43 -5 -93 -8 -50 -4 -102 -9 -115 -11 -13 -2
-41 -6 -61 -9 -21 -3 -59 -11 -85 -17 -27 -6 -56 -12 -67 -15 -167 -34 -402
-137 -566 -248 -101 -69 -263 -232 -332 -336 -160 -239 -229 -488 -223 -800 1
-80 6 -163 9 -185 65 -429 313 -732 776 -947 192 -90 323 -136 675 -238 61
-18 117 -35 125 -38 8 -3 20 -6 26 -7 39 -9 320 -108 369 -130 180 -83 263
-170 272 -289 16 -193 -119 -321 -372 -353 -101 -13 -409 -4 -436 13 -4 2 -24
6 -45 10 -38 6 -155 35 -224 55 -196 59 -513 211 -692 331 -31 21 -59 38 -62
38 -3 0 -26 16 -52 35 -25 19 -49 35 -52 35 -9 -1 -48 -60 -339 -510 -30 -47
-88 -136 -129 -199 -41 -63 -74 -117 -74 -120 0 -3 49 -40 108 -83 309 -220
664 -390 1012 -483 96 -26 263 -62 316 -69 16 -3 52 -7 79 -11 28 -3 61 -8 75
-11 41 -6 250 -18 335 -17 80 0 273 11 317 18 13 2 46 6 73 10 146 18 393 88
533 151 372 170 631 474 726 854 42 168 59 447 36 601 -69 460 -390 787 -1010
1029 -74 29 -144 56 -155 61 -11 4 -99 35 -195 68 -602 204 -702 249 -818 370
-123 128 -74 331 101 420 149 75 418 75 686 0 256 -71 557 -201 788 -341 l32
-19 22 43 c12 24 30 54 39 68 10 14 18 28 19 33 0 4 7 17 15 30 7 12 55 99
106 192 141 257 140 256 176 318 19 32 34 60 34 62 0 2 16 31 35 65 19 34 35
63 35 65 0 4 -109 75 -116 75 -3 0 -24 13 -48 29 -63 44 -315 163 -455 215
-141 53 -258 89 -381 117 -115 27 -112 26 -167 35 -26 5 -50 9 -53 9 -3 1 -32
5 -65 9 -33 5 -69 10 -80 12 -42 9 -381 24 -388 18z"/>
<path d="M33007 13674 c-1 -1 -57 -5 -125 -9 -67 -3 -130 -8 -140 -9 -9 -2
-48 -7 -87 -11 -38 -5 -77 -9 -85 -10 -8 -1 -40 -5 -70 -10 -30 -4 -57 -8 -60
-10 -3 -2 -26 -6 -50 -10 -117 -16 -529 -131 -625 -174 -11 -5 -72 -30 -135
-55 -63 -26 -120 -50 -126 -54 -7 -5 38 -157 138 -462 179 -547 167 -513 187
-504 74 34 428 144 511 160 14 2 45 9 70 14 41 9 120 23 195 34 31 5 132 15
201 21 59 5 374 5 419 0 168 -19 327 -68 441 -136 65 -39 167 -136 206 -194
77 -115 117 -250 125 -427 l6 -128 -74 25 c-82 28 -264 77 -349 94 -30 6 -66
14 -80 16 -249 50 -657 63 -964 30 -43 -5 -107 -14 -196 -29 -28 -5 -155 -37
-241 -60 -72 -20 -217 -79 -294 -119 -253 -132 -457 -337 -566 -571 -92 -198
-122 -347 -123 -606 -1 -216 5 -272 40 -406 94 -363 324 -643 669 -814 109
-54 209 -95 259 -105 10 -3 33 -9 50 -14 17 -6 45 -13 61 -16 17 -2 41 -7 55
-10 91 -19 114 -22 220 -31 144 -12 372 -6 475 12 187 32 220 39 335 76 232
74 495 239 663 417 l47 50 1 -37 c0 -20 1 -128 1 -239 l1 -203 614 0 614 0 -4
1438 c-2 790 -6 1448 -9 1462 -4 14 -9 48 -13 75 -83 681 -419 1152 -982 1376
-94 37 -243 84 -288 90 -2 0 -28 7 -57 14 -29 8 -54 12 -56 10 -2 -2 -14 0
-26 5 -12 4 -51 11 -86 15 -36 4 -72 8 -80 10 -55 10 -215 18 -398 19 -117 1
-214 1 -215 0z m418 -2558 c183 -22 354 -62 502 -119 l88 -34 -1 -169 c-1
-189 -10 -242 -60 -353 -74 -162 -194 -280 -379 -374 -60 -30 -185 -73 -239
-81 -21 -4 -41 -8 -45 -10 -28 -18 -318 -27 -421 -14 -209 27 -393 139 -474
288 -34 64 -39 78 -54 170 -28 164 27 351 136 467 107 113 289 197 472 220 25
3 70 8 100 12 67 8 292 6 375 -3z"/>
<path d="M21056 13621 c-6 -10 1 -3115 7 -3141 3 -14 8 -43 11 -65 29 -226 83
-410 176 -594 162 -324 414 -541 765 -660 127 -42 170 -51 365 -77 45 -6 303
-6 350 -1 196 24 349 67 494 139 87 43 226 131 277 175 134 115 224 207 307
310 31 40 60 72 64 72 4 1 7 -126 7 -281 0 -156 0 -295 0 -311 l1 -27 633 2
632 3 0 2230 0 2230 -633 1 -632 1 -1 -21 c0 -12 0 -595 -1 -1297 -1 -1420 -1
-1416 -67 -1597 -116 -318 -372 -487 -731 -482 -172 2 -273 26 -390 92 -216
121 -346 369 -366 698 -1 25 -3 621 -3 1326 l-1 1281 -630 0 c-347 0 -632 -3
-634 -6z"/>
</g>
</svg>
